<svg width="500" height="500" viewBox="0 0 500 500" fill="none" xmlns="http://www.w3.org/2000/svg">
<rect width="500" height="500" rx="30" fill="white"/>
<path d="M140.266 438.564C130.616 443.553 119.666 434.809 121.616 423.646L139.628 320.182C141.34 310.349 138.05 300.309 130.851 293.397L54.2913 219.885C46.0663 211.973 50.3413 197.509 61.3663 195.946L168.274 180.634C178.009 179.239 186.442 173.162 190.846 164.369L238.416 69.3708C243.341 59.5431 256.666 59.5431 261.591 69.3708L309.161 164.369C313.564 173.162 321.997 179.239 331.732 180.634L438.64 195.946C449.665 197.509 453.94 211.973 445.69 219.885L369.152 293.397C361.955 300.309 358.667 310.348 360.378 320.179L378.39 423.646C380.34 434.809 369.39 443.553 359.74 438.564L249.966 381.714L140.266 438.564Z" fill="#00D4AC"/>
<path d="M249.429 184C210.141 184 178 215.499 178 254C178 306.5 249.429 384 249.429 384C249.429 384 320.857 306.5 320.857 254C320.857 215.499 288.716 184 249.429 184ZM249.429 279C235.145 279 223.918 267.998 223.918 254C223.918 240.002 235.144 229 249.429 229C263.713 229 274.939 240.002 274.939 254C274.939 267.998 263.713 279 249.429 279Z" fill="white"/>
</svg>
