<svg width="50" height="60" viewBox="0 0 50 60" fill="none" xmlns="http://www.w3.org/2000/svg">
<circle cx="25" cy="25" r="25" fill="url(#paint0_radial_272_147)"/>
<path d="M31.5938 34.7694V28.8281C31.5938 27.8128 31.1904 26.8391 30.4725 26.1212C29.7546 25.4033 28.7809 25 27.7656 25C26.7503 25 25.7766 25.4033 25.0587 26.1212C24.3408 26.8391 23.9375 27.8128 23.9375 28.8281V40.5094L21.3125 41.0344C20.5079 41.1957 19.7929 41.6526 19.3086 42.3151C18.8243 42.9776 18.6058 43.7975 18.6963 44.6131L19.4509 51.4075C19.548 52.276 19.8518 53.1087 20.3369 53.8356L23.4716 58.5387C23.7712 58.9882 24.1771 59.3567 24.6534 59.6117C25.1296 59.8666 25.6614 60 26.2016 60H40.1688C40.7471 59.9998 41.3152 59.8468 41.8153 59.5563C42.3155 59.2659 42.73 58.8485 43.0169 58.3463L46.0684 53.0066C46.6019 52.0732 46.9329 51.0379 47.0397 49.9681L47.6325 44.0291C47.6933 43.4209 47.626 42.8067 47.4349 42.2261C47.2439 41.6455 46.9332 41.1114 46.5231 40.6582C46.113 40.205 45.6124 39.8427 45.0537 39.5948C44.4951 39.3469 43.8906 39.2188 43.2794 39.2188H42.0084C41.8719 39.0336 41.7296 38.8527 41.5819 38.6762C41.1641 38.1753 40.4663 37.4337 39.6569 37.11C38.8606 36.7906 37.8063 36.8212 37.1238 36.8737L36.835 36.9C36.6021 36.3038 36.169 35.8073 35.61 35.4956C35.1067 35.2054 34.5625 34.993 33.9956 34.8656C33.3175 34.73 32.3791 34.7388 31.6988 34.765L31.5938 34.7694Z" fill="#FF2B53"/>
<defs>
<radialGradient id="paint0_radial_272_147" cx="0" cy="0" r="1" gradientUnits="userSpaceOnUse" gradientTransform="translate(25 25) rotate(90) scale(25)">
<stop stop-color="#D4576E"/>
<stop offset="1" stop-color="#737373" stop-opacity="0"/>
</radialGradient>
</defs>
</svg>
